<?xml version="1.0" standalone="no"?>
<!DOCTYPE svg PUBLIC "-//W3C//DTD SVG 20010904//EN"
 "http://www.w3.org/TR/2001/REC-SVG-20010904/DTD/svg10.dtd">
<svg version="1.0" xmlns="http://www.w3.org/2000/svg"
 width="700.000000pt" height="700.000000pt" viewBox="0 0 700.000000 700.000000"
 preserveAspectRatio="xMidYMid meet">
<metadata>
Created by potrace 1.14, written by Peter Selinger 2001-2017
</metadata>
<g transform="translate(0.000000,700.000000) scale(0.100000,-0.100000)"
fill="#000000" stroke="none">
<path d="M3279 6645 c-3 -2 -35 -6 -73 -10 -97 -8 -224 -26 -342 -49 -254 -50
-549 -154 -804 -285 -199 -101 -473 -286 -625 -421 -62 -55 -257 -251 -305
-305 -113 -129 -280 -361 -363 -507 -54 -93 -156 -305 -190 -393 -19 -49 -38
-99 -42 -110 -5 -11 -9 -22 -10 -25 0 -3 -11 -34 -22 -70 -12 -36 -27 -85 -34
-110 -7 -25 -14 -49 -15 -55 -2 -5 -5 -19 -7 -30 -3 -11 -13 -51 -22 -90 -18
-75 -18 -74 -36 -185 -12 -78 -14 -88 -26 -210 -16 -159 -9 -528 13 -700 85
-667 403 -1318 877 -1794 135 -135 179 -175 282 -258 299 -238 661 -431 1020
-543 121 -37 335 -89 415 -100 25 -3 52 -8 60 -10 8 -2 35 -6 60 -9 25 -3 79
-8 120 -13 41 -4 179 -8 305 -7 261 1 321 6 545 45 549 96 1089 355 1515 729
50 44 247 241 297 296 113 128 279 361 371 526 137 242 271 582 322 818 38
174 58 296 73 445 10 96 9 482 -1 580 -13 121 -29 228 -47 315 -5 25 -12 56
-14 70 -15 95 -87 326 -146 476 -290 728 -831 1316 -1530 1665 -320 159 -709
276 -1013 305 -34 3 -73 8 -87 11 -30 6 -516 14 -521 8z m468 -618 c10 -3 47
-9 83 -12 36 -4 88 -11 115 -17 28 -5 61 -11 75 -14 183 -34 492 -145 660
-236 115 -63 271 -162 340 -215 440 -339 746 -774 902 -1283 40 -127 55 -188
63 -240 3 -19 8 -42 10 -50 5 -19 12 -62 20 -125 3 -27 9 -80 13 -116 15 -121
6 -423 -17 -574 -11 -77 -23 -149 -25 -160 -48 -203 -86 -324 -143 -460 -203
-485 -562 -906 -1005 -1181 -111 -69 -289 -158 -413 -207 -88 -35 -334 -111
-391 -120 -69 -12 -162 -26 -204 -32 -25 -3 -63 -8 -85 -12 -93 -13 -412 -9
-545 8 -138 18 -177 24 -208 33 -9 3 -28 7 -42 10 -57 10 -194 48 -277 77
-773 270 -1366 887 -1601 1664 -37 124 -74 287 -87 393 -3 23 -8 61 -11 85 -4
23 -7 119 -8 212 -3 235 14 412 58 600 41 176 85 310 151 460 321 725 935
1246 1701 1445 87 22 99 25 184 39 97 17 123 21 205 27 44 4 81 8 83 9 5 5
380 -3 399 -8z"/>
</g>
</svg>
